<svg width="150" height="150" viewBox="0 0 150 150" fill="none" xmlns="http://www.w3.org/2000/svg">
<path d="M0 145.005V4.99774C0 2.24141 2.24141 0 4.99774 0H94.9975C97.7639 0 100.005 2.24141 100.005 4.99774V145.005C100.005 147.762 97.7639 150.003 94.9975 150.003H4.99774C2.24141 150.003 0 147.762 0 145.005ZM9.99549 139.997H89.9998V9.99549H9.99549V139.997Z" fill="#DBBD7F"/>
<path d="M133.94 97.3803C134.657 95.159 136.151 94.5936 138.099 94.0585C140.28 93.4527 144.814 92.1907 144.955 90.5147C145.308 86.2338 143.966 71.8362 143.552 68.5347H143.562C142.33 58.7007 137.544 49.3413 127.821 45.646C126.913 45.3128 126.065 44.2527 124.752 42.7887C123.611 41.5267 123.934 43.9599 124.015 44.6061C124.176 45.7773 124.51 46.9384 123.167 47.8269C120.744 49.4423 119.795 50.0279 118.038 52.4308C116.231 54.8944 115.211 57.2267 111.899 58.2363C108.8 59.1854 110.142 64.4456 113.424 62.6687C115.241 61.6893 117.907 60.2455 120.673 61.0835C121.572 61.3359 121.713 61.558 122.571 61.2148C126.731 59.5589 129.81 62.8605 127.226 66.5053C126.711 67.2323 126.065 67.7775 125.6 68.1409C122.904 70.8569 118.028 76.7734 115.403 82.7101C113.898 86.1227 112.545 90.7873 115.302 93.5436C117.109 95.3509 119.259 95.26 121.047 97.5923C123.54 100.843 121.541 104.801 118.199 106.487C118.22 106.598 118.25 106.76 118.23 107.053C118.088 108.597 117.927 110.485 117.028 111.758C116.231 113.09 115.251 113.353 114.201 113.625C113.989 113.676 113.747 113.747 113.747 115.322C113.747 115.705 113.807 115.927 114.07 116.19C118.371 120.491 136.383 120.521 141.825 117.179C142.39 116.826 142.613 116.877 142.562 116.099C142.502 114.958 142.683 114.837 141.845 114.302C141.209 113.908 140.482 113.353 140.008 112.525C139.049 110.849 138.978 109.587 138.968 107.85C138.968 107.113 139.19 106.79 138.392 106.386C135.131 104.69 132.88 100.722 133.94 97.3803ZM70.8975 74.5118C69.9181 75.4912 68.333 75.4912 67.3536 74.5118C66.3844 73.5425 66.3844 71.9574 67.3536 70.978L72.7754 65.5663C73.7447 64.587 75.3298 64.587 76.3092 65.5663L81.7209 70.978C82.6902 71.9574 82.6902 73.5425 81.7209 74.5118C80.7415 75.4912 79.1564 75.4912 78.1871 74.5118L77.0361 73.3709V82.1851C77.0361 85.6381 75.6327 88.7579 73.3711 91.0195C71.1095 93.2811 67.9796 94.6946 64.5367 94.6946H35.459C33.3993 94.6946 31.5213 95.5326 30.1684 96.8956C28.8054 98.2486 27.9674 100.126 27.9674 102.186V117.048C27.9674 118.421 26.8467 119.542 25.4635 119.542C24.0803 119.542 22.9595 118.421 22.9595 117.048V102.186C22.9595 98.7433 24.363 95.6235 26.6347 93.3518C28.8963 91.0902 32.0161 89.6868 35.459 89.6868H64.5367C66.6065 89.6868 68.4743 88.8488 69.8374 87.4857C71.1903 86.1328 72.0384 84.2549 72.0384 82.1851V73.3709L70.8975 74.5118ZM78.1871 109.446C79.1564 108.476 80.7415 108.476 81.7209 109.446C82.6902 110.425 82.6902 112.01 81.7209 112.989L78.0761 116.634L81.7209 120.279C82.6902 121.248 82.6902 122.833 81.7209 123.813C80.7415 124.792 79.1564 124.792 78.1871 123.813L74.5423 120.168L70.8975 123.813C69.9181 124.792 68.333 124.792 67.3536 123.813C66.3844 122.833 66.3844 121.248 67.3536 120.279L70.9985 116.634L67.3536 112.989C66.3844 112.01 66.3844 110.425 67.3536 109.446C68.333 108.476 69.9181 108.476 70.8975 109.446L74.5423 113.1L78.1871 109.446ZM49.9978 108.719C52.1888 108.719 54.1677 109.607 55.5913 111.031C57.025 112.464 57.9135 114.443 57.9135 116.634C57.9135 118.815 57.025 120.794 55.5913 122.228C54.1677 123.661 52.1888 124.54 49.9978 124.54C47.817 124.54 45.8381 123.661 44.4044 122.228C42.9707 120.794 42.0923 118.815 42.0923 116.634C42.0923 114.443 42.9707 112.464 44.4044 111.031C45.8381 109.607 47.817 108.719 49.9978 108.719ZM52.0575 114.575C51.5325 114.039 50.8056 113.716 49.9978 113.716C49.2002 113.716 48.4632 114.039 47.9382 114.575C47.4132 115.1 47.0901 115.826 47.0901 116.634C47.0901 117.432 47.4132 118.159 47.9382 118.694C48.4632 119.219 49.2002 119.542 49.9978 119.542C50.8056 119.542 51.5325 119.219 52.0575 118.694C52.5825 118.159 52.9157 117.432 52.9157 116.634C52.9157 115.826 52.5825 115.1 52.0575 114.575ZM18.2849 64.1024C17.3055 63.123 17.3055 61.5479 18.2849 60.5686C19.2542 59.5892 20.8393 59.5892 21.8187 60.5686L25.4635 64.2134L29.1083 60.5686C30.0876 59.5892 31.6627 59.5892 32.642 60.5686C33.6214 61.5479 33.6214 63.123 32.642 64.1024L28.9972 67.7472L32.642 71.392C33.6214 72.3713 33.6214 73.9565 32.642 74.9257C31.6627 75.9051 30.0876 75.9051 29.1083 74.9257L25.4635 71.2809L21.8187 74.9257C20.8393 75.9051 19.2542 75.9051 18.2849 74.9257C17.3055 73.9565 17.3055 72.3713 18.2849 71.392L21.9297 67.7472L18.2849 64.1024ZM20.0518 30.461C18.6686 30.461 17.5479 29.3403 17.5479 27.957C17.5479 26.5738 18.6686 25.4531 20.0518 25.4531H79.954C81.3271 25.4531 82.4478 26.5738 82.4478 27.957C82.4478 29.3403 81.3271 30.461 79.954 30.461H20.0518ZM20.0518 40.4565C18.6686 40.4565 17.5479 39.3357 17.5479 37.9525C17.5479 36.5794 18.6686 35.4587 20.0518 35.4587H58.2164C59.5996 35.4587 60.7203 36.5794 60.7203 37.9525C60.7203 39.3357 59.5996 40.4565 58.2164 40.4565H20.0518ZM138.665 99.0664C138.604 101.086 140.593 101.883 142.098 102.489C142.996 102.842 143.471 103.337 143.753 105.195C143.935 106.386 143.945 107.224 143.976 108.355C143.996 109.001 144.066 109.506 144.289 109.94C144.43 110.122 146.409 110.92 147.015 112.626C147.54 114.12 147.812 117.169 147.247 118.482C146.722 119.693 146.066 120.4 144.925 121.117C141.361 123.56 133.96 124.752 126.923 124.509C119.461 124.267 108.749 122.329 108.749 115.322C108.749 110.072 110.849 109.355 112.767 108.85C113.02 108.779 113.04 108.799 113.07 108.517C113.414 105.538 112.99 103.398 115.897 102.045C118.028 101.055 117.079 100.328 115.473 99.5914C107.396 95.8759 107.608 88.0208 110.839 80.7009C113.292 75.1378 117.483 69.6352 120.501 66.263C120.098 66.1721 119.663 66.0308 119.179 65.8389C118.422 65.5966 116.19 66.8183 115.11 67.4241C111.95 69.3828 110.597 68.252 109.385 66.9495C108.668 66.7476 107.82 65.9601 106.306 63.8096C105.225 62.5576 104.771 61.6489 105.003 60.1748C105.155 59.145 105.67 58.2969 106.568 56.8834C106.871 56.3079 106.901 55.9848 107.406 55.3184C108.305 54.1372 108.991 53.8948 109.698 53.6626C111.728 52.9963 112.364 51.8251 113.454 50.2601C115.685 47.0595 116.766 46.1307 119.098 44.5455C118.957 42.5666 119.108 39.4367 120.118 37.2862C121.602 34.1462 123.52 34.6813 125.721 36.6198C126.66 37.4477 127.599 38.4876 128.457 39.4468C129.164 40.2343 129.709 40.8704 129.921 41.1127C141.128 45.535 147.166 56.3988 148.519 67.9289C148.963 71.5434 150.316 86.2742 149.933 90.9286C149.488 96.2596 142.148 98.1375 138.665 99.0664Z" fill="white"/>
</svg>
