<svg width="150" height="150" viewBox="0 0 150 150" fill="none" xmlns="http://www.w3.org/2000/svg">
<path d="M5.00342 50.0049H98.117L88.5943 59.9971H10.0068V139.993H139.993V59.9971H103.37L112.335 50.0049H144.997C147.755 50.0049 150 52.2351 150 54.9936V144.997C150 147.755 147.755 150 144.997 150H5.00342C2.24494 150 0 147.755 0 144.997V54.9936C0 52.2351 2.24494 50.0049 5.00342 50.0049Z" fill="#DBBD7F"/>
<path d="M88.0955 132.495C86.7162 132.495 85.6011 131.38 85.6011 130.001C85.6011 128.622 86.7162 127.492 88.0955 127.492H119.891C121.271 127.492 122.386 128.622 122.386 130.001C122.386 131.38 121.271 132.495 119.891 132.495H88.0955ZM136.354 36.1098L143.06 7.67387L115.446 17.2259L124.058 25.0024L66.365 88.8731L35.024 80.1868C34.5398 80.0548 34.0555 80.0695 33.6007 80.2162C33.1458 80.3629 32.735 80.6417 32.4269 81.0232L10.0068 105.85V98.4251L28.5386 77.8979C29.463 76.7534 30.6955 75.9171 32.0894 75.4622C33.4246 75.0367 34.9066 74.978 36.3592 75.3742L64.7364 83.2534L117.016 25.3693L105.864 15.2891L150 0L148.958 4.40184L139.274 45.4563L128.108 35.3761L72.7184 96.6937C71.7646 97.7648 70.5615 98.4838 69.2703 98.8506C67.9497 99.2468 66.5265 99.2468 65.1912 98.88L36.814 91.03L10.0068 120.713V113.274L35.1854 85.3957L66.5265 94.082C66.9666 94.1994 67.4508 94.1994 67.891 94.0673C68.3165 93.9499 68.7127 93.7005 69.0355 93.3483L127.741 28.3478L136.354 36.1098ZM88.0955 102.504C86.7162 102.504 85.6011 101.374 85.6011 99.9951C85.6011 98.6159 86.7162 97.5007 88.0955 97.5007H130.001C131.38 97.5007 132.495 98.6159 132.495 99.9951C132.495 101.374 131.38 102.504 130.001 102.504H88.0955ZM88.0955 112.496C86.7162 112.496 85.6011 111.381 85.6011 110.002C85.6011 108.623 86.7162 107.493 88.0955 107.493H114.8C116.179 107.493 117.294 108.623 117.294 110.002C117.294 111.381 116.179 112.496 114.8 112.496H88.0955ZM88.0955 122.503C86.7162 122.503 85.6011 121.373 85.6011 119.994C85.6011 118.615 86.7162 117.5 88.0955 117.5H122.929C124.308 117.5 125.423 118.615 125.423 119.994C125.423 121.373 124.308 122.503 122.929 122.503H88.0955Z" fill="white"/>
</svg>
