<svg width="150" height="150" viewBox="0 0 150 150" fill="none" xmlns="http://www.w3.org/2000/svg">
<path d="M17.858 17.858C29.7512 5.96487 45.3403 0 60.9295 0C76.5187 0 92.1078 5.96487 104.001 17.858C115.894 29.7512 121.859 45.3403 121.859 60.9295C121.859 71.5052 119.114 82.081 113.625 91.5223L145.426 123.286C148.5 126.36 150 130.349 150 134.374C150 138.363 148.5 142.388 145.426 145.426V145.462C142.388 148.5 138.363 150 134.374 150C130.349 150 126.36 148.5 123.286 145.426L91.5223 113.625C82.081 119.114 71.5052 121.859 60.9295 121.859C45.3403 121.859 29.7512 115.894 17.858 104.001C5.96487 92.1078 0 76.5187 0 60.9295C0 45.3403 5.96487 29.7512 17.858 17.858ZM107.807 99.8292C106.636 101.256 105.355 102.647 104.001 104.001C102.647 105.355 101.256 106.636 99.8292 107.807L130.385 138.363C131.483 139.461 132.91 140.01 134.374 140.01C135.838 140.01 137.265 139.461 138.363 138.363C139.461 137.265 140.01 135.838 140.01 134.374C140.01 132.91 139.461 131.483 138.363 130.385L107.807 99.8292ZM24.9207 24.9207C14.9671 34.8744 9.99024 47.9019 9.99024 60.9295C9.99024 73.9571 14.9671 86.9846 24.9207 96.9383C34.8744 106.892 47.9019 111.869 60.9295 111.869C73.9571 111.869 86.9846 106.892 96.9383 96.9383C106.892 86.9846 111.869 73.9571 111.869 60.9295C111.869 47.9019 106.892 34.8744 96.9383 24.9207C86.9846 14.9671 73.9571 9.99024 60.9295 9.99024C47.9019 9.99024 34.8744 14.9671 24.9207 24.9207Z" fill="#DBBD7F"/>
<path d="M44.9742 97.963C43.5836 97.963 42.4857 96.8286 42.4857 95.438C42.4857 94.084 43.5836 92.9496 44.9742 92.9496H71.688C73.042 92.9496 74.1764 94.084 74.1764 95.438C74.1764 96.8286 73.042 97.963 71.688 97.963H44.9742ZM87.1674 34.3987C84.4228 34.3987 82.1905 36.631 82.1905 39.4121C82.1905 42.1567 84.4228 44.4255 87.1674 44.4255C89.9485 44.4255 92.1808 42.1567 92.1808 39.4121C92.1808 36.631 89.9485 34.3987 87.1674 34.3987ZM69.6753 59.9415C67.4796 59.9415 65.6865 61.7346 65.6865 63.9303C65.6865 66.1625 67.4796 67.9191 69.6753 67.9191C71.871 67.9191 73.6641 66.1625 73.6641 63.9303C73.6641 61.7346 71.871 59.9415 69.6753 59.9415ZM44.6814 55.5868C43.0347 55.5868 41.6807 56.9408 41.6807 58.5875C41.6807 60.2343 43.0347 61.5883 44.6814 61.5883C46.3281 61.5883 47.6821 60.2343 47.6821 58.5875C47.6821 56.9408 46.3281 55.5868 44.6814 55.5868ZM27.1893 72.4568C25.7987 72.4568 24.6643 73.5546 24.6643 74.9452C24.6643 76.3358 25.7987 77.4336 27.1893 77.4336C28.5433 77.4336 29.6777 76.3358 29.6777 74.9452C29.6777 73.5546 28.5433 72.4568 27.1893 72.4568ZM30.6292 68.285L37.4357 61.9542C36.96 60.9296 36.6673 59.7951 36.6673 58.5875C36.6673 54.1596 40.2535 50.5734 44.6814 50.5734C48.8166 50.5734 52.2198 53.7205 52.6224 57.7459L61.7343 59.6854C63.2713 56.8676 66.2354 54.9281 69.6753 54.9281C70.7365 54.9281 71.7246 55.1111 72.676 55.4404L79.5192 45.8527C78.0554 44.0962 77.1771 41.8639 77.1771 39.4121C77.1771 33.8864 81.6416 29.4219 87.1674 29.4219C92.6931 29.4219 97.1942 33.8864 97.1942 39.4121C97.1942 44.9379 92.6931 49.4024 87.1674 49.4024C85.9232 49.4024 84.7155 49.1828 83.5811 48.7437L76.738 58.3314C77.9456 59.8683 78.6775 61.8078 78.6775 63.9303C78.6775 68.9071 74.6521 72.9325 69.6753 72.9325C64.918 72.9325 61.039 69.2365 60.7097 64.5524L51.5977 62.6129C50.2071 64.9915 47.6089 66.5651 44.6814 66.5651C43.2908 66.5651 41.9734 66.2357 40.839 65.6136L34.0325 71.9444C34.435 72.8593 34.6912 73.8839 34.6912 74.9452C34.6912 79.0803 31.3245 82.447 27.1893 82.447C23.0176 82.447 19.6875 79.0803 19.6875 74.9452C19.6875 70.81 23.0176 67.4433 27.1893 67.4433C28.4335 67.4433 29.6046 67.7361 30.6292 68.285ZM44.9742 87.9362C43.5836 87.9362 42.4857 86.8383 42.4857 85.4477C42.4857 84.0572 43.5836 82.9593 44.9742 82.9593H86.8746C88.2652 82.9593 89.363 84.0572 89.363 85.4477C89.363 86.8383 88.2652 87.9362 86.8746 87.9362H44.9742Z" fill="white"/>
</svg>
